<svg width="30" height="30" viewBox="0 0 30 30" fill="none" xmlns="http://www.w3.org/2000/svg">
<path d="M15.4679 18.2888L20.8073 13.1667C20.9358 13.0435 21 12.8938 21 12.7178C21 12.5418 20.9358 12.3922 20.8073 12.269L20.2018 11.6881C20.0734 11.5649 19.9174 11.5033 19.7339 11.5033C19.5505 11.4857 19.3945 11.5385 19.2661 11.6617L15 15.7541L10.7339 11.6617C10.6055 11.5385 10.4495 11.4857 10.2661 11.5033C10.0826 11.5033 9.92661 11.5649 9.79817 11.6881L9.19266 12.269C9.06422 12.3922 9 12.5418 9 12.7178C9 12.8938 9.06422 13.0435 9.19266 13.1667L14.5321 18.2888C14.6606 18.4296 14.8165 18.5 15 18.5C15.1835 18.5 15.3395 18.4296 15.4679 18.2888Z" fill="white"/>
</svg>
