<svg width="30" height="30" viewBox="0 0 30 30" fill="none" xmlns="http://www.w3.org/2000/svg">
<path d="M16.668 11.6884C13.4659 11.8902 14.9037 16.1194 18.4438 15.8962C21.9067 15.6779 20.0798 11.4734 16.668 11.6884Z" fill="#F19021"/>
<path d="M15.3164 9.07628C13.276 9.07628 11.2814 9.68986 9.58492 10.8394C7.8884 11.989 6.56612 13.6229 5.78529 15.5346C5.00447 17.4462 4.80017 19.5497 5.19823 21.5791C5.59629 23.6085 6.57883 25.4727 8.02161 26.9358C9.46439 28.3989 11.3026 29.3953 13.3038 29.799C15.305 30.2026 17.3793 29.9955 19.2643 29.2036C21.1494 28.4118 22.7606 27.0709 23.8942 25.3504C25.0278 23.63 25.6328 21.6073 25.6328 19.5381C25.6328 16.7635 24.5459 14.1025 22.6112 12.1405C20.6765 10.1785 18.0525 9.07628 15.3164 9.07628ZM15.3164 28.9036C13.4903 28.9039 11.7051 28.355 10.1865 27.3264C8.66798 26.2978 7.48433 24.8356 6.78528 23.1248C6.08622 21.414 5.90315 19.5313 6.25922 17.715C6.61528 15.8987 7.49449 14.2302 8.78566 12.9206C10.0768 11.611 11.7219 10.7191 13.513 10.3577C15.304 9.99628 17.1605 10.1816 18.8477 10.8902C20.5348 11.5988 21.9769 12.7989 22.9915 14.3387C24.006 15.8784 24.5476 17.6887 24.5476 19.5406C24.5476 22.0235 23.5751 24.4048 21.8439 26.1606C20.1128 27.9165 17.7648 28.9031 15.3164 28.9036ZM15.0053 1.77275C12.5562 3.65012 12.9818 6.52919 12.9818 6.52919C12.9818 6.52919 11.4425 2.47707 9.44337 0C9.17368 3.18881 10.159 7.41392 10.159 7.41392C10.159 7.41392 8.90724 4.79433 5.83994 4.6477C8.38411 6.13048 9.37108 8.80197 9.5969 9.51864C11.1131 8.56957 12.8469 8.03751 14.6276 7.9749C14.4269 7.30765 13.7137 4.49613 15.0053 1.77275Z" fill="#F19021"/>
</svg>
